<svg width="700" height="696" xmlns="http://www.w3.org/2000/svg" viewBox="0 0 700 696"><style>.visible-lines line{stroke:#000;stroke-width:0.005;}.hidden-lines line{stroke:#888;stroke-width:0.0025;stroke-dasharray:0.0125;}.damage-marker{fill:#D00;stroke:none;}.label{font-size:16px;font-family:sans-serif;}</style><rect x="0" y="0" width="700" height="696" fill="#fff"/><text x="60" y="35" class="label" font-weight="bold">Assembly: santo_08</text><g transform="translate(220, 60)"><text x="50" y="172" text-anchor="middle" font-size="14" font-family="sans-serif">TOP</text><g transform="translate(50, 76) scale(200) translate(0, 0.0024999999999999883)"><g class="hidden-lines"><line x1="0.21999999999999997" y1="0.2" x2="0.21999999999999997" y2="0.2" /><line x1="0.21999999999999997" y1="0.2" x2="0.25" y2="0.2" /><line x1="0.25" y1="0.2" x2="0.25" y2="0.2" /><line x1="0.21999999999999997" y1="0.245" x2="0.21999999999999997" y2="0.245" /><line x1="0.21999999999999997" y1="0.245" x2="0.25" y2="0.245" /><line x1="0.25" y1="0.245" x2="0.25" y2="0.245" /><line x1="0.21999999999999997" y1="0.2" x2="0.21999999999999997" y2="0.245" /><line x1="0.25" y1="0.2" x2="0.25" y2="0.245" /><line x1="-0.25" y1="0.2" x2="-0.25" y2="0.2" /><line x1="-0.25" y1="0.2" x2="-0.21999999999999997" y2="0.2" /><line x1="-0.21999999999999997" y1="0.2" x2="-0.21999999999999997" y2="0.2" /><line x1="-0.25" y1="0.245" x2="-0.25" y2="0.245" /><line x1="-0.25" y1="0.245" x2="-0.21999999999999997" y2="0.245" /><line x1="-0.21999999999999997" y1="0.245" x2="-0.21999999999999997" y2="0.245" /><line x1="-0.25" y1="0.2" x2="-0.25" y2="0.245" /><line x1="-0.21999999999999997" y1="0.2" x2="-0.21999999999999997" y2="0.245" /><line x1="0.21999999999999997" y1="-0.245" x2="0.21999999999999997" y2="-0.245" /><line x1="0.21999999999999997" y1="-0.245" x2="0.25" y2="-0.245" /><line x1="0.25" y1="-0.245" x2="0.25" y2="-0.245" /><line x1="0.21999999999999997" y1="-0.2" x2="0.21999999999999997" y2="-0.2" /><line x1="0.21999999999999997" y1="-0.2" x2="0.25" y2="-0.2" /><line x1="0.25" y1="-0.2" x2="0.25" y2="-0.2" /><line x1="0.21999999999999997" y1="-0.245" x2="0.21999999999999997" y2="-0.2" /><line x1="0.25" y1="-0.245" x2="0.25" y2="-0.2" /><line x1="-0.25" y1="-0.245" x2="-0.25" y2="-0.245" /><line x1="-0.25" y1="-0.245" x2="-0.21999999999999997" y2="-0.245" /><line x1="-0.21999999999999997" y1="-0.245" x2="-0.21999999999999997" y2="-0.245" /><line x1="-0.25" y1="-0.2" x2="-0.25" y2="-0.2" /><line x1="-0.25" y1="-0.2" x2="-0.21999999999999997" y2="-0.2" /><line x1="-0.21999999999999997" y1="-0.2" x2="-0.21999999999999997" y2="-0.2" /><line x1="-0.25" y1="-0.245" x2="-0.25" y2="-0.2" /><line x1="-0.21999999999999997" y1="-0.245" x2="-0.21999999999999997" y2="-0.2" /><line x1="-0.22" y1="0.218" x2="-0.22" y2="0.218" /><line x1="-0.22" y1="0.218" x2="0.22" y2="0.218" /><line x1="0.22" y1="0.218" x2="0.22" y2="0.218" /><line x1="-0.22" y1="0.24500000000000002" x2="-0.22" y2="0.24500000000000002" /><line x1="-0.22" y1="0.24500000000000002" x2="0.22" y2="0.24500000000000002" /><line x1="0.22" y1="0.24500000000000002" x2="0.22" y2="0.24500000000000002" /><line x1="-0.22" y1="0.218" x2="-0.22" y2="0.24500000000000002" /><line x1="0.22" y1="0.218" x2="0.22" y2="0.24500000000000002" /><line x1="-0.22" y1="-0.24500000000000002" x2="-0.22" y2="-0.24500000000000002" /><line x1="-0.22" y1="-0.24500000000000002" x2="0.22" y2="-0.24500000000000002" /><line x1="0.22" y1="-0.24500000000000002" x2="0.22" y2="-0.24500000000000002" /><line x1="-0.22" y1="-0.218" x2="-0.22" y2="-0.218" /><line x1="-0.22" y1="-0.218" x2="0.22" y2="-0.218" /><line x1="0.22" y1="-0.218" x2="0.22" y2="-0.218" /><line x1="-0.22" y1="-0.24500000000000002" x2="-0.22" y2="-0.218" /><line x1="0.22" y1="-0.24500000000000002" x2="0.22" y2="-0.218" /><line x1="0.19299999999999998" y1="-0.218" x2="0.19299999999999998" y2="-0.218" /><line x1="0.19299999999999998" y1="-0.218" x2="0.22" y2="-0.218" /><line x1="0.22" y1="-0.218" x2="0.22" y2="-0.218" /><line x1="0.19299999999999998" y1="0.218" x2="0.19299999999999998" y2="0.218" /><line x1="0.19299999999999998" y1="0.218" x2="0.22" y2="0.218" /><line x1="0.22" y1="0.218" x2="0.22" y2="0.218" /><line x1="0.19299999999999998" y1="-0.218" x2="0.19299999999999998" y2="0.218" /><line x1="0.22" y1="-0.218" x2="0.22" y2="0.218" /><line x1="-0.22" y1="-0.218" x2="-0.22" y2="-0.218" /><line x1="-0.22" y1="-0.218" x2="-0.19299999999999998" y2="-0.218" /><line x1="-0.19299999999999998" y1="-0.218" x2="-0.19299999999999998" y2="-0.218" /><line x1="-0.22" y1="0.218" x2="-0.22" y2="0.218" /><line x1="-0.22" y1="0.218" x2="-0.19299999999999998" y2="0.218" /><line x1="-0.19299999999999998" y1="0.218" x2="-0.19299999999999998" y2="0.218" /><line x1="-0.22" y1="-0.218" x2="-0.22" y2="0.218" /><line x1="-0.19299999999999998" y1="-0.218" x2="-0.19299999999999998" y2="0.218" /><line x1="-0.22" y1="-0.245" x2="-0.22" y2="-0.245" /><line x1="-0.22" y1="-0.245" x2="0.22" y2="-0.245" /><line x1="0.22" y1="-0.245" x2="0.22" y2="-0.245" /><line x1="-0.22" y1="0.245" x2="-0.22" y2="0.245" /><line x1="-0.22" y1="0.245" x2="0.22" y2="0.245" /><line x1="0.22" y1="0.245" x2="0.22" y2="0.245" /><line x1="-0.22" y1="-0.245" x2="-0.22" y2="0.245" /><line x1="0.22" y1="-0.245" x2="0.22" y2="0.245" /><line x1="-0.22" y1="-0.25" x2="-0.22" y2="-0.25" /><line x1="-0.22" y1="-0.25" x2="0.22" y2="-0.25" /><line x1="0.22" y1="-0.25" x2="0.22" y2="-0.25" /><line x1="-0.22" y1="-0.2" x2="-0.22" y2="-0.2" /><line x1="-0.22" y1="-0.2" x2="0.22" y2="-0.2" /><line x1="0.22" y1="-0.2" x2="0.22" y2="-0.2" /><line x1="-0.22" y1="-0.25" x2="-0.22" y2="-0.2" /><line x1="0.22" y1="-0.25" x2="0.22" y2="-0.2" /><line x1="0.22249999999999998" y1="0.2025" x2="0.22249999999999998" y2="0.2025" /><line x1="0.22249999999999998" y1="0.2025" x2="0.2475" y2="0.2025" /><line x1="0.2475" y1="0.2025" x2="0.2475" y2="0.2025" /><line x1="0.22249999999999998" y1="0.2425" x2="0.22249999999999998" y2="0.2425" /><line x1="0.22249999999999998" y1="0.2425" x2="0.2475" y2="0.2425" /><line x1="0.2475" y1="0.2425" x2="0.2475" y2="0.2425" /><line x1="0.22249999999999998" y1="0.2025" x2="0.22249999999999998" y2="0.2425" /><line x1="0.2475" y1="0.2025" x2="0.2475" y2="0.2425" /><line x1="-0.2475" y1="0.2025" x2="-0.2475" y2="0.2025" /><line x1="-0.2475" y1="0.2025" x2="-0.22249999999999998" y2="0.2025" /><line x1="-0.22249999999999998" y1="0.2025" x2="-0.22249999999999998" y2="0.2025" /><line x1="-0.2475" y1="0.2425" x2="-0.2475" y2="0.2425" /><line x1="-0.2475" y1="0.2425" x2="-0.22249999999999998" y2="0.2425" /><line x1="-0.22249999999999998" y1="0.2425" x2="-0.22249999999999998" y2="0.2425" /><line x1="-0.2475" y1="0.2025" x2="-0.2475" y2="0.2425" /><line x1="-0.22249999999999998" y1="0.2025" x2="-0.22249999999999998" y2="0.2425" /><line x1="0.22249999999999998" y1="-0.2425" x2="0.22249999999999998" y2="-0.2425" /><line x1="0.22249999999999998" y1="-0.2425" x2="0.2475" y2="-0.2425" /><line x1="0.2475" y1="-0.2425" x2="0.2475" y2="-0.2425" /><line x1="0.22249999999999998" y1="-0.2025" x2="0.22249999999999998" y2="-0.2025" /><line x1="0.22249999999999998" y1="-0.2025" x2="0.2475" y2="-0.2025" /><line x1="0.2475" y1="-0.2025" x2="0.2475" y2="-0.2025" /><line x1="0.22249999999999998" y1="-0.2425" x2="0.22249999999999998" y2="-0.2025" /><line x1="0.2475" y1="-0.2425" x2="0.2475" y2="-0.2025" /><line x1="-0.2475" y1="-0.2425" x2="-0.2475" y2="-0.2425" /><line x1="-0.2475" y1="-0.2425" x2="-0.22249999999999998" y2="-0.2425" /><line x1="-0.22249999999999998" y1="-0.2425" x2="-0.22249999999999998" y2="-0.2425" /><line x1="-0.2475" y1="-0.2025" x2="-0.2475" y2="-0.2025" /><line x1="-0.2475" y1="-0.2025" x2="-0.22249999999999998" y2="-0.2025" /><line x1="-0.22249999999999998" y1="-0.2025" x2="-0.22249999999999998" y2="-0.2025" /><line x1="-0.2475" y1="-0.2425" x2="-0.2475" y2="-0.2025" /><line x1="-0.22249999999999998" y1="-0.2425" x2="-0.22249999999999998" y2="-0.2025" /></g><g class="visible-lines"><line x1="0.25" y1="0.2" x2="0.21999999999999997" y2="0.2" /><line x1="0.25" y1="0.245" x2="0.21999999999999997" y2="0.245" /><line x1="0.25" y1="0.2" x2="0.25" y2="0.245" /><line x1="0.21999999999999997" y1="0.2" x2="0.21999999999999997" y2="0.245" /><line x1="-0.21999999999999997" y1="0.2" x2="-0.25" y2="0.2" /><line x1="-0.21999999999999997" y1="0.245" x2="-0.25" y2="0.245" /><line x1="-0.21999999999999997" y1="0.2" x2="-0.21999999999999997" y2="0.245" /><line x1="-0.25" y1="0.2" x2="-0.25" y2="0.245" /><line x1="0.25" y1="-0.245" x2="0.21999999999999997" y2="-0.245" /><line x1="0.25" y1="-0.2" x2="0.21999999999999997" y2="-0.2" /><line x1="0.25" y1="-0.245" x2="0.25" y2="-0.2" /><line x1="0.21999999999999997" y1="-0.245" x2="0.21999999999999997" y2="-0.2" /><line x1="-0.21999999999999997" y1="-0.245" x2="-0.25" y2="-0.245" /><line x1="-0.21999999999999997" y1="-0.2" x2="-0.25" y2="-0.2" /><line x1="-0.21999999999999997" y1="-0.245" x2="-0.21999999999999997" y2="-0.2" /><line x1="-0.25" y1="-0.245" x2="-0.25" y2="-0.2" /><line x1="0.22" y1="0.218" x2="-0.22" y2="0.218" /><line x1="0.22" y1="0.24500000000000002" x2="-0.22" y2="0.24500000000000002" /><line x1="0.22" y1="0.218" x2="0.22" y2="0.24500000000000002" /><line x1="-0.22" y1="0.218" x2="-0.22" y2="0.24500000000000002" /><line x1="0.22" y1="-0.24500000000000002" x2="-0.22" y2="-0.24500000000000002" /><line x1="0.22" y1="-0.218" x2="-0.22" y2="-0.218" /><line x1="0.22" y1="-0.24500000000000002" x2="0.22" y2="-0.218" /><line x1="-0.22" y1="-0.24500000000000002" x2="-0.22" y2="-0.218" /><line x1="0.22" y1="-0.218" x2="0.19299999999999998" y2="-0.218" /><line x1="0.22" y1="0.218" x2="0.19299999999999998" y2="0.218" /><line x1="0.22" y1="-0.218" x2="0.22" y2="0.218" /><line x1="0.19299999999999998" y1="-0.218" x2="0.19299999999999998" y2="0.218" /><line x1="-0.19299999999999998" y1="-0.218" x2="-0.22" y2="-0.218" /><line x1="-0.19299999999999998" y1="0.218" x2="-0.22" y2="0.218" /><line x1="-0.19299999999999998" y1="-0.218" x2="-0.19299999999999998" y2="0.218" /><line x1="-0.22" y1="-0.218" x2="-0.22" y2="0.218" /><line x1="0.22" y1="-0.245" x2="-0.22" y2="-0.245" /><line x1="0.22" y1="0.245" x2="-0.22" y2="0.245" /><line x1="0.22" y1="-0.245" x2="0.22" y2="0.245" /><line x1="-0.22" y1="-0.245" x2="-0.22" y2="0.245" /><line x1="0.22" y1="-0.25" x2="-0.22" y2="-0.25" /><line x1="0.22" y1="-0.2" x2="-0.22" y2="-0.2" /><line x1="0.22" y1="-0.25" x2="0.22" y2="-0.2" /><line x1="-0.22" y1="-0.25" x2="-0.22" y2="-0.2" /><line x1="0.2475" y1="0.2025" x2="0.22249999999999998" y2="0.2025" /><line x1="0.2475" y1="0.2425" x2="0.22249999999999998" y2="0.2425" /><line x1="0.2475" y1="0.2025" x2="0.2475" y2="0.2425" /><line x1="0.22249999999999998" y1="0.2025" x2="0.22249999999999998" y2="0.2425" /><line x1="-0.22249999999999998" y1="0.2025" x2="-0.2475" y2="0.2025" /><line x1="-0.22249999999999998" y1="0.2425" x2="-0.2475" y2="0.2425" /><line x1="-0.22249999999999998" y1="0.2025" x2="-0.22249999999999998" y2="0.2425" /><line x1="-0.2475" y1="0.2025" x2="-0.2475" y2="0.2425" /><line x1="0.2475" y1="-0.2425" x2="0.22249999999999998" y2="-0.2425" /><line x1="0.2475" y1="-0.2025" x2="0.22249999999999998" y2="-0.2025" /><line x1="0.2475" y1="-0.2425" x2="0.2475" y2="-0.2025" /><line x1="0.22249999999999998" y1="-0.2425" x2="0.22249999999999998" y2="-0.2025" /><line x1="-0.22249999999999998" y1="-0.2425" x2="-0.2475" y2="-0.2425" /><line x1="-0.22249999999999998" y1="-0.2025" x2="-0.2475" y2="-0.2025" /><line x1="-0.22249999999999998" y1="-0.2425" x2="-0.22249999999999998" y2="-0.2025" /><line x1="-0.2475" y1="-0.2425" x2="-0.2475" y2="-0.2025" /></g><line x1="0.35" y1="0.14500000000000002" x2="0.425" y2="0.14500000000000002" stroke="black" stroke-width="0.0025" /><line x1="0.35" y1="0.04500000000000001" x2="0.425" y2="0.04500000000000001" stroke="black" stroke-width="0.0025" /><line x1="0.35" y1="-0.05500000000000002" x2="0.425" y2="-0.05500000000000002" stroke="black" stroke-width="0.0025" /><line x1="0.35" y1="-0.155" x2="0.425" y2="-0.155" stroke="black" stroke-width="0.0025" /></g></g><g transform="translate(60, 272)"><text x="50" y="172" text-anchor="middle" font-size="14" font-family="sans-serif">LEFT</text><g transform="translate(50, 76) scale(200) translate(-0.0024999999999999883, 0.38)"><g class="hidden-lines"><line x1="-0.2" y1="-0.008000000000000007" x2="-0.2" y2="-0.008000000000000007" /><line x1="-0.2" y1="-0.434" x2="-0.2" y2="-0.434" /><line x1="-0.2" y1="-0.008000000000000007" x2="-0.2" y2="-0.434" /><line x1="-0.245" y1="-0.008000000000000007" x2="-0.245" y2="-0.008000000000000007" /><line x1="-0.245" y1="-0.434" x2="-0.245" y2="-0.434" /><line x1="-0.245" y1="-0.008000000000000007" x2="-0.245" y2="-0.434" /><line x1="-0.2" y1="-0.008000000000000007" x2="-0.245" y2="-0.008000000000000007" /><line x1="-0.2" y1="-0.434" x2="-0.245" y2="-0.434" /><line x1="-0.2" y1="-0.008000000000000007" x2="-0.2" y2="-0.008000000000000007" /><line x1="-0.2" y1="-0.434" x2="-0.2" y2="-0.434" /><line x1="-0.2" y1="-0.008000000000000007" x2="-0.2" y2="-0.434" /><line x1="-0.245" y1="-0.008000000000000007" x2="-0.245" y2="-0.008000000000000007" /><line x1="-0.245" y1="-0.434" x2="-0.245" y2="-0.434" /><line x1="-0.245" y1="-0.008000000000000007" x2="-0.245" y2="-0.434" /><line x1="-0.2" y1="-0.008000000000000007" x2="-0.245" y2="-0.008000000000000007" /><line x1="-0.2" y1="-0.434" x2="-0.245" y2="-0.434" /><line x1="0.245" y1="-0.008000000000000007" x2="0.245" y2="-0.008000000000000007" /><line x1="0.245" y1="-0.76" x2="0.245" y2="-0.76" /><line x1="0.245" y1="-0.008000000000000007" x2="0.245" y2="-0.76" /><line x1="0.2" y1="-0.008000000000000007" x2="0.2" y2="-0.008000000000000007" /><line x1="0.2" y1="-0.76" x2="0.2" y2="-0.76" /><line x1="0.2" y1="-0.008000000000000007" x2="0.2" y2="-0.76" /><line x1="0.245" y1="-0.008000000000000007" x2="0.2" y2="-0.008000000000000007" /><line x1="0.245" y1="-0.76" x2="0.2" y2="-0.76" /><line x1="0.245" y1="-0.008000000000000007" x2="0.245" y2="-0.008000000000000007" /><line x1="0.245" y1="-0.76" x2="0.245" y2="-0.76" /><line x1="0.245" y1="-0.008000000000000007" x2="0.245" y2="-0.76" /><line x1="0.2" y1="-0.008000000000000007" x2="0.2" y2="-0.008000000000000007" /><line x1="0.2" y1="-0.76" x2="0.2" y2="-0.76" /><line x1="0.2" y1="-0.008000000000000007" x2="0.2" y2="-0.76" /><line x1="0.245" y1="-0.008000000000000007" x2="0.2" y2="-0.008000000000000007" /><line x1="0.245" y1="-0.76" x2="0.2" y2="-0.76" /><line x1="-0.218" y1="-0.374" x2="-0.218" y2="-0.374" /><line x1="-0.218" y1="-0.43400000000000005" x2="-0.218" y2="-0.43400000000000005" /><line x1="-0.218" y1="-0.374" x2="-0.218" y2="-0.43400000000000005" /><line x1="-0.24500000000000002" y1="-0.374" x2="-0.24500000000000002" y2="-0.374" /><line x1="-0.24500000000000002" y1="-0.43400000000000005" x2="-0.24500000000000002" y2="-0.43400000000000005" /><line x1="-0.24500000000000002" y1="-0.374" x2="-0.24500000000000002" y2="-0.43400000000000005" /><line x1="-0.218" y1="-0.374" x2="-0.24500000000000002" y2="-0.374" /><line x1="-0.218" y1="-0.43400000000000005" x2="-0.24500000000000002" y2="-0.43400000000000005" /><line x1="0.24500000000000002" y1="-0.374" x2="0.24500000000000002" y2="-0.374" /><line x1="0.24500000000000002" y1="-0.43400000000000005" x2="0.24500000000000002" y2="-0.43400000000000005" /><line x1="0.24500000000000002" y1="-0.374" x2="0.24500000000000002" y2="-0.43400000000000005" /><line x1="0.218" y1="-0.374" x2="0.218" y2="-0.374" /><line x1="0.218" y1="-0.43400000000000005" x2="0.218" y2="-0.43400000000000005" /><line x1="0.218" y1="-0.374" x2="0.218" y2="-0.43400000000000005" /><line x1="0.24500000000000002" y1="-0.374" x2="0.218" y2="-0.374" /><line x1="0.24500000000000002" y1="-0.43400000000000005" x2="0.218" y2="-0.43400000000000005" /><line x1="0.218" y1="-0.374" x2="0.218" y2="-0.374" /><line x1="0.218" y1="-0.43400000000000005" x2="0.218" y2="-0.43400000000000005" /><line x1="0.218" y1="-0.374" x2="0.218" y2="-0.43400000000000005" /><line x1="-0.218" y1="-0.374" x2="-0.218" y2="-0.374" /><line x1="-0.218" y1="-0.43400000000000005" x2="-0.218" y2="-0.43400000000000005" /><line x1="-0.218" y1="-0.374" x2="-0.218" y2="-0.43400000000000005" /><line x1="0.218" y1="-0.374" x2="-0.218" y2="-0.374" /><line x1="0.218" y1="-0.43400000000000005" x2="-0.218" y2="-0.43400000000000005" /><line x1="0.218" y1="-0.374" x2="0.218" y2="-0.374" /><line x1="0.218" y1="-0.43400000000000005" x2="0.218" y2="-0.43400000000000005" /><line x1="0.218" y1="-0.374" x2="0.218" y2="-0.43400000000000005" /><line x1="-0.218" y1="-0.374" x2="-0.218" y2="-0.374" /><line x1="-0.218" y1="-0.43400000000000005" x2="-0.218" y2="-0.43400000000000005" /><line x1="-0.218" y1="-0.374" x2="-0.218" y2="-0.43400000000000005" /><line x1="0.218" y1="-0.374" x2="-0.218" y2="-0.374" /><line x1="0.218" y1="-0.43400000000000005" x2="-0.218" y2="-0.43400000000000005" /><line x1="0.245" y1="-0.434" x2="0.245" y2="-0.434" /><line x1="0.245" y1="-0.44" x2="0.245" y2="-0.44" /><line x1="0.245" y1="-0.434" x2="0.245" y2="-0.44" /><line x1="-0.245" y1="-0.434" x2="-0.245" y2="-0.434" /><line x1="-0.245" y1="-0.44" x2="-0.245" y2="-0.44" /><line x1="-0.245" y1="-0.434" x2="-0.245" y2="-0.44" /><line x1="0.245" y1="-0.434" x2="-0.245" y2="-0.434" /><line x1="0.245" y1="-0.44" x2="-0.245" y2="-0.44" /><line x1="0.25" y1="-0.6499999999999999" x2="0.25" y2="-0.6499999999999999" /><line x1="0.25" y1="-0.76" x2="0.25" y2="-0.76" /><line x1="0.25" y1="-0.6499999999999999" x2="0.25" y2="-0.76" /><line x1="0.2" y1="-0.6499999999999999" x2="0.2" y2="-0.6499999999999999" /><line x1="0.2" y1="-0.76" x2="0.2" y2="-0.76" /><line x1="0.2" y1="-0.6499999999999999" x2="0.2" y2="-0.76" /><line x1="0.25" y1="-0.6499999999999999" x2="0.2" y2="-0.6499999999999999" /><line x1="0.25" y1="-0.76" x2="0.2" y2="-0.76" /><line x1="-0.2025" y1="0" x2="-0.2025" y2="0" /><line x1="-0.2025" y1="-0.008" x2="-0.2025" y2="-0.008" /><line x1="-0.2025" y1="0" x2="-0.2025" y2="-0.008" /><line x1="-0.2425" y1="0" x2="-0.2425" y2="0" /><line x1="-0.2425" y1="-0.008" x2="-0.2425" y2="-0.008" /><line x1="-0.2425" y1="0" x2="-0.2425" y2="-0.008" /><line x1="-0.2025" y1="0" x2="-0.2425" y2="0" /><line x1="-0.2025" y1="-0.008" x2="-0.2425" y2="-0.008" /><line x1="-0.2025" y1="0" x2="-0.2025" y2="0" /><line x1="-0.2025" y1="-0.008" x2="-0.2025" y2="-0.008" /><line x1="-0.2025" y1="0" x2="-0.2025" y2="-0.008" /><line x1="-0.2425" y1="0" x2="-0.2425" y2="0" /><line x1="-0.2425" y1="-0.008" x2="-0.2425" y2="-0.008" /><line x1="-0.2425" y1="0" x2="-0.2425" y2="-0.008" /><line x1="-0.2025" y1="0" x2="-0.2425" y2="0" /><line x1="-0.2025" y1="-0.008" x2="-0.2425" y2="-0.008" /><line x1="0.2425" y1="0" x2="0.2425" y2="0" /><line x1="0.2425" y1="-0.008" x2="0.2425" y2="-0.008" /><line x1="0.2425" y1="0" x2="0.2425" y2="-0.008" /><line x1="0.2025" y1="0" x2="0.2025" y2="0" /><line x1="0.2025" y1="-0.008" x2="0.2025" y2="-0.008" /><line x1="0.2025" y1="0" x2="0.2025" y2="-0.008" /><line x1="0.2425" y1="0" x2="0.2025" y2="0" /><line x1="0.2425" y1="-0.008" x2="0.2025" y2="-0.008" /><line x1="0.2425" y1="0" x2="0.2425" y2="0" /><line x1="0.2425" y1="-0.008" x2="0.2425" y2="-0.008" /><line x1="0.2425" y1="0" x2="0.2425" y2="-0.008" /><line x1="0.2025" y1="0" x2="0.2025" y2="0" /><line x1="0.2025" y1="-0.008" x2="0.2025" y2="-0.008" /><line x1="0.2025" y1="0" x2="0.2025" y2="-0.008" /><line x1="0.2425" y1="0" x2="0.2025" y2="0" /><line x1="0.2425" y1="-0.008" x2="0.2025" y2="-0.008" /></g><g class="visible-lines"><line x1="-0.2" y1="-0.008000000000000007" x2="-0.2" y2="-0.434" /><line x1="-0.245" y1="-0.008000000000000007" x2="-0.245" y2="-0.434" /><line x1="-0.2" y1="-0.008000000000000007" x2="-0.245" y2="-0.008000000000000007" /><line x1="-0.2" y1="-0.434" x2="-0.245" y2="-0.434" /><line x1="-0.2" y1="-0.008000000000000007" x2="-0.2" y2="-0.434" /><line x1="-0.245" y1="-0.008000000000000007" x2="-0.245" y2="-0.434" /><line x1="-0.2" y1="-0.008000000000000007" x2="-0.245" y2="-0.008000000000000007" /><line x1="-0.2" y1="-0.434" x2="-0.245" y2="-0.434" /><line x1="0.245" y1="-0.008000000000000007" x2="0.245" y2="-0.76" /><line x1="0.2" y1="-0.008000000000000007" x2="0.2" y2="-0.76" /><line x1="0.245" y1="-0.008000000000000007" x2="0.2" y2="-0.008000000000000007" /><line x1="0.245" y1="-0.76" x2="0.2" y2="-0.76" /><line x1="0.245" y1="-0.008000000000000007" x2="0.245" y2="-0.76" /><line x1="0.2" y1="-0.008000000000000007" x2="0.2" y2="-0.76" /><line x1="0.245" y1="-0.008000000000000007" x2="0.2" y2="-0.008000000000000007" /><line x1="0.245" y1="-0.76" x2="0.2" y2="-0.76" /><line x1="-0.218" y1="-0.374" x2="-0.218" y2="-0.43400000000000005" /><line x1="-0.24500000000000002" y1="-0.374" x2="-0.24500000000000002" y2="-0.43400000000000005" /><line x1="-0.218" y1="-0.374" x2="-0.24500000000000002" y2="-0.374" /><line x1="-0.218" y1="-0.43400000000000005" x2="-0.24500000000000002" y2="-0.43400000000000005" /><line x1="0.24500000000000002" y1="-0.374" x2="0.24500000000000002" y2="-0.43400000000000005" /><line x1="0.218" y1="-0.374" x2="0.218" y2="-0.43400000000000005" /><line x1="0.24500000000000002" y1="-0.374" x2="0.218" y2="-0.374" /><line x1="0.24500000000000002" y1="-0.43400000000000005" x2="0.218" y2="-0.43400000000000005" /><line x1="0.218" y1="-0.374" x2="0.218" y2="-0.43400000000000005" /><line x1="-0.218" y1="-0.374" x2="-0.218" y2="-0.43400000000000005" /><line x1="0.218" y1="-0.374" x2="-0.218" y2="-0.374" /><line x1="0.218" y1="-0.43400000000000005" x2="-0.218" y2="-0.43400000000000005" /><line x1="0.218" y1="-0.374" x2="0.218" y2="-0.43400000000000005" /><line x1="-0.218" y1="-0.374" x2="-0.218" y2="-0.43400000000000005" /><line x1="0.218" y1="-0.374" x2="-0.218" y2="-0.374" /><line x1="0.218" y1="-0.43400000000000005" x2="-0.218" y2="-0.43400000000000005" /><line x1="0.245" y1="-0.434" x2="0.245" y2="-0.44" /><line x1="-0.245" y1="-0.434" x2="-0.245" y2="-0.44" /><line x1="0.245" y1="-0.434" x2="-0.245" y2="-0.434" /><line x1="0.245" y1="-0.44" x2="-0.245" y2="-0.44" /><line x1="0.25" y1="-0.6499999999999999" x2="0.25" y2="-0.76" /><line x1="0.2" y1="-0.6499999999999999" x2="0.2" y2="-0.76" /><line x1="0.25" y1="-0.6499999999999999" x2="0.2" y2="-0.6499999999999999" /><line x1="0.25" y1="-0.76" x2="0.2" y2="-0.76" /><line x1="-0.2025" y1="0" x2="-0.2025" y2="-0.008" /><line x1="-0.2425" y1="0" x2="-0.2425" y2="-0.008" /><line x1="-0.2025" y1="0" x2="-0.2425" y2="0" /><line x1="-0.2025" y1="-0.008" x2="-0.2425" y2="-0.008" /><line x1="-0.2025" y1="0" x2="-0.2025" y2="-0.008" /><line x1="-0.2425" y1="0" x2="-0.2425" y2="-0.008" /><line x1="-0.2025" y1="0" x2="-0.2425" y2="0" /><line x1="-0.2025" y1="-0.008" x2="-0.2425" y2="-0.008" /><line x1="0.2425" y1="0" x2="0.2425" y2="-0.008" /><line x1="0.2025" y1="0" x2="0.2025" y2="-0.008" /><line x1="0.2425" y1="0" x2="0.2025" y2="0" /><line x1="0.2425" y1="-0.008" x2="0.2025" y2="-0.008" /><line x1="0.2425" y1="0" x2="0.2425" y2="-0.008" /><line x1="0.2025" y1="0" x2="0.2025" y2="-0.008" /><line x1="0.2425" y1="0" x2="0.2025" y2="0" /><line x1="0.2425" y1="-0.008" x2="0.2025" y2="-0.008" /></g></g></g><g transform="translate(220, 272)"><text x="50" y="172" text-anchor="middle" font-size="14" font-family="sans-serif">FRONT</text><g transform="translate(50, 76) scale(200) translate(0, 0.38)"><g class="hidden-lines"><line x1="0.25" y1="-0.008000000000000007" x2="0.21999999999999997" y2="-0.008000000000000007" /><line x1="0.21999999999999997" y1="-0.008000000000000007" x2="0.21999999999999997" y2="-0.434" /><line x1="0.21999999999999997" y1="-0.434" x2="0.25" y2="-0.434" /><line x1="0.25" y1="-0.008000000000000007" x2="0.25" y2="-0.434" /><line x1="0.25" y1="-0.008000000000000007" x2="0.25" y2="-0.008000000000000007" /><line x1="0.21999999999999997" y1="-0.008000000000000007" x2="0.21999999999999997" y2="-0.008000000000000007" /><line x1="0.21999999999999997" y1="-0.434" x2="0.21999999999999997" y2="-0.434" /><line x1="0.25" y1="-0.434" x2="0.25" y2="-0.434" /><line x1="-0.21999999999999997" y1="-0.008000000000000007" x2="-0.25" y2="-0.008000000000000007" /><line x1="-0.25" y1="-0.008000000000000007" x2="-0.25" y2="-0.434" /><line x1="-0.25" y1="-0.434" x2="-0.21999999999999997" y2="-0.434" /><line x1="-0.21999999999999997" y1="-0.008000000000000007" x2="-0.21999999999999997" y2="-0.434" /><line x1="-0.21999999999999997" y1="-0.008000000000000007" x2="-0.21999999999999997" y2="-0.008000000000000007" /><line x1="-0.25" y1="-0.008000000000000007" x2="-0.25" y2="-0.008000000000000007" /><line x1="-0.25" y1="-0.434" x2="-0.25" y2="-0.434" /><line x1="-0.21999999999999997" y1="-0.434" x2="-0.21999999999999997" y2="-0.434" /><line x1="0.25" y1="-0.008000000000000007" x2="0.21999999999999997" y2="-0.008000000000000007" /><line x1="0.21999999999999997" y1="-0.008000000000000007" x2="0.21999999999999997" y2="-0.76" /><line x1="0.21999999999999997" y1="-0.76" x2="0.25" y2="-0.76" /><line x1="0.25" y1="-0.008000000000000007" x2="0.25" y2="-0.76" /><line x1="0.25" y1="-0.008000000000000007" x2="0.25" y2="-0.008000000000000007" /><line x1="0.21999999999999997" y1="-0.008000000000000007" x2="0.21999999999999997" y2="-0.008000000000000007" /><line x1="0.21999999999999997" y1="-0.76" x2="0.21999999999999997" y2="-0.76" /><line x1="0.25" y1="-0.76" x2="0.25" y2="-0.76" /><line x1="-0.21999999999999997" y1="-0.008000000000000007" x2="-0.25" y2="-0.008000000000000007" /><line x1="-0.25" y1="-0.008000000000000007" x2="-0.25" y2="-0.76" /><line x1="-0.25" y1="-0.76" x2="-0.21999999999999997" y2="-0.76" /><line x1="-0.21999999999999997" y1="-0.008000000000000007" x2="-0.21999999999999997" y2="-0.76" /><line x1="-0.21999999999999997" y1="-0.008000000000000007" x2="-0.21999999999999997" y2="-0.008000000000000007" /><line x1="-0.25" y1="-0.008000000000000007" x2="-0.25" y2="-0.008000000000000007" /><line x1="-0.25" y1="-0.76" x2="-0.25" y2="-0.76" /><line x1="-0.21999999999999997" y1="-0.76" x2="-0.21999999999999997" y2="-0.76" /><line x1="0.22" y1="-0.374" x2="-0.22" y2="-0.374" /><line x1="-0.22" y1="-0.374" x2="-0.22" y2="-0.43400000000000005" /><line x1="-0.22" y1="-0.43400000000000005" x2="0.22" y2="-0.43400000000000005" /><line x1="0.22" y1="-0.374" x2="0.22" y2="-0.43400000000000005" /><line x1="0.22" y1="-0.374" x2="0.22" y2="-0.374" /><line x1="-0.22" y1="-0.374" x2="-0.22" y2="-0.374" /><line x1="-0.22" y1="-0.43400000000000005" x2="-0.22" y2="-0.43400000000000005" /><line x1="0.22" y1="-0.43400000000000005" x2="0.22" y2="-0.43400000000000005" /><line x1="0.22" y1="-0.374" x2="-0.22" y2="-0.374" /><line x1="-0.22" y1="-0.374" x2="-0.22" y2="-0.43400000000000005" /><line x1="-0.22" y1="-0.43400000000000005" x2="0.22" y2="-0.43400000000000005" /><line x1="0.22" y1="-0.374" x2="0.22" y2="-0.43400000000000005" /><line x1="0.22" y1="-0.374" x2="0.22" y2="-0.374" /><line x1="-0.22" y1="-0.374" x2="-0.22" y2="-0.374" /><line x1="-0.22" y1="-0.43400000000000005" x2="-0.22" y2="-0.43400000000000005" /><line x1="0.22" y1="-0.43400000000000005" x2="0.22" y2="-0.43400000000000005" /><line x1="0.22" y1="-0.374" x2="0.19299999999999998" y2="-0.374" /><line x1="0.19299999999999998" y1="-0.374" x2="0.19299999999999998" y2="-0.43400000000000005" /><line x1="0.19299999999999998" y1="-0.43400000000000005" x2="0.22" y2="-0.43400000000000005" /><line x1="0.22" y1="-0.374" x2="0.22" y2="-0.43400000000000005" /><line x1="0.22" y1="-0.374" x2="0.22" y2="-0.374" /><line x1="0.19299999999999998" y1="-0.374" x2="0.19299999999999998" y2="-0.374" /><line x1="0.19299999999999998" y1="-0.43400000000000005" x2="0.19299999999999998" y2="-0.43400000000000005" /><line x1="0.22" y1="-0.43400000000000005" x2="0.22" y2="-0.43400000000000005" /><line x1="-0.19299999999999998" y1="-0.374" x2="-0.22" y2="-0.374" /><line x1="-0.22" y1="-0.374" x2="-0.22" y2="-0.43400000000000005" /><line x1="-0.22" y1="-0.43400000000000005" x2="-0.19299999999999998" y2="-0.43400000000000005" /><line x1="-0.19299999999999998" y1="-0.374" x2="-0.19299999999999998" y2="-0.43400000000000005" /><line x1="-0.19299999999999998" y1="-0.374" x2="-0.19299999999999998" y2="-0.374" /><line x1="-0.22" y1="-0.374" x2="-0.22" y2="-0.374" /><line x1="-0.22" y1="-0.43400000000000005" x2="-0.22" y2="-0.43400000000000005" /><line x1="-0.19299999999999998" y1="-0.43400000000000005" x2="-0.19299999999999998" y2="-0.43400000000000005" /><line x1="0.22" y1="-0.434" x2="-0.22" y2="-0.434" /><line x1="-0.22" y1="-0.434" x2="-0.22" y2="-0.44" /><line x1="-0.22" y1="-0.44" x2="0.22" y2="-0.44" /><line x1="0.22" y1="-0.434" x2="0.22" y2="-0.44" /><line x1="0.22" y1="-0.434" x2="0.22" y2="-0.434" /><line x1="-0.22" y1="-0.434" x2="-0.22" y2="-0.434" /><line x1="-0.22" y1="-0.44" x2="-0.22" y2="-0.44" /><line x1="0.22" y1="-0.44" x2="0.22" y2="-0.44" /><line x1="0.22" y1="-0.6499999999999999" x2="-0.22" y2="-0.6499999999999999" /><line x1="-0.22" y1="-0.6499999999999999" x2="-0.22" y2="-0.76" /><line x1="-0.22" y1="-0.76" x2="0.22" y2="-0.76" /><line x1="0.22" y1="-0.6499999999999999" x2="0.22" y2="-0.76" /><line x1="0.22" y1="-0.6499999999999999" x2="0.22" y2="-0.6499999999999999" /><line x1="-0.22" y1="-0.6499999999999999" x2="-0.22" y2="-0.6499999999999999" /><line x1="-0.22" y1="-0.76" x2="-0.22" y2="-0.76" /><line x1="0.22" y1="-0.76" x2="0.22" y2="-0.76" /><line x1="0.2475" y1="0" x2="0.22249999999999998" y2="0" /><line x1="0.22249999999999998" y1="0" x2="0.22249999999999998" y2="-0.008" /><line x1="0.22249999999999998" y1="-0.008" x2="0.2475" y2="-0.008" /><line x1="0.2475" y1="0" x2="0.2475" y2="-0.008" /><line x1="0.2475" y1="0" x2="0.2475" y2="0" /><line x1="0.22249999999999998" y1="0" x2="0.22249999999999998" y2="0" /><line x1="0.22249999999999998" y1="-0.008" x2="0.22249999999999998" y2="-0.008" /><line x1="0.2475" y1="-0.008" x2="0.2475" y2="-0.008" /><line x1="-0.22249999999999998" y1="0" x2="-0.2475" y2="0" /><line x1="-0.2475" y1="0" x2="-0.2475" y2="-0.008" /><line x1="-0.2475" y1="-0.008" x2="-0.22249999999999998" y2="-0.008" /><line x1="-0.22249999999999998" y1="0" x2="-0.22249999999999998" y2="-0.008" /><line x1="-0.22249999999999998" y1="0" x2="-0.22249999999999998" y2="0" /><line x1="-0.2475" y1="0" x2="-0.2475" y2="0" /><line x1="-0.2475" y1="-0.008" x2="-0.2475" y2="-0.008" /><line x1="-0.22249999999999998" y1="-0.008" x2="-0.22249999999999998" y2="-0.008" /><line x1="0.2475" y1="0" x2="0.22249999999999998" y2="0" /><line x1="0.22249999999999998" y1="0" x2="0.22249999999999998" y2="-0.008" /><line x1="0.22249999999999998" y1="-0.008" x2="0.2475" y2="-0.008" /><line x1="0.2475" y1="0" x2="0.2475" y2="-0.008" /><line x1="0.2475" y1="0" x2="0.2475" y2="0" /><line x1="0.22249999999999998" y1="0" x2="0.22249999999999998" y2="0" /><line x1="0.22249999999999998" y1="-0.008" x2="0.22249999999999998" y2="-0.008" /><line x1="0.2475" y1="-0.008" x2="0.2475" y2="-0.008" /><line x1="-0.22249999999999998" y1="0" x2="-0.2475" y2="0" /><line x1="-0.2475" y1="0" x2="-0.2475" y2="-0.008" /><line x1="-0.2475" y1="-0.008" x2="-0.22249999999999998" y2="-0.008" /><line x1="-0.22249999999999998" y1="0" x2="-0.22249999999999998" y2="-0.008" /><line x1="-0.22249999999999998" y1="0" x2="-0.22249999999999998" y2="0" /><line x1="-0.2475" y1="0" x2="-0.2475" y2="0" /><line x1="-0.2475" y1="-0.008" x2="-0.2475" y2="-0.008" /><line x1="-0.22249999999999998" y1="-0.008" x2="-0.22249999999999998" y2="-0.008" /></g><g class="visible-lines"><line x1="0.25" y1="-0.008000000000000007" x2="0.21999999999999997" y2="-0.008000000000000007" /><line x1="0.21999999999999997" y1="-0.008000000000000007" x2="0.21999999999999997" y2="-0.434" /><line x1="0.21999999999999997" y1="-0.434" x2="0.25" y2="-0.434" /><line x1="0.25" y1="-0.008000000000000007" x2="0.25" y2="-0.434" /><line x1="-0.21999999999999997" y1="-0.008000000000000007" x2="-0.25" y2="-0.008000000000000007" /><line x1="-0.25" y1="-0.008000000000000007" x2="-0.25" y2="-0.434" /><line x1="-0.25" y1="-0.434" x2="-0.21999999999999997" y2="-0.434" /><line x1="-0.21999999999999997" y1="-0.008000000000000007" x2="-0.21999999999999997" y2="-0.434" /><line x1="0.25" y1="-0.008000000000000007" x2="0.21999999999999997" y2="-0.008000000000000007" /><line x1="0.21999999999999997" y1="-0.008000000000000007" x2="0.21999999999999997" y2="-0.76" /><line x1="0.21999999999999997" y1="-0.76" x2="0.25" y2="-0.76" /><line x1="0.25" y1="-0.008000000000000007" x2="0.25" y2="-0.76" /><line x1="-0.21999999999999997" y1="-0.008000000000000007" x2="-0.25" y2="-0.008000000000000007" /><line x1="-0.25" y1="-0.008000000000000007" x2="-0.25" y2="-0.76" /><line x1="-0.25" y1="-0.76" x2="-0.21999999999999997" y2="-0.76" /><line x1="-0.21999999999999997" y1="-0.008000000000000007" x2="-0.21999999999999997" y2="-0.76" /><line x1="0.22" y1="-0.374" x2="-0.22" y2="-0.374" /><line x1="-0.22" y1="-0.374" x2="-0.22" y2="-0.43400000000000005" /><line x1="-0.22" y1="-0.43400000000000005" x2="0.22" y2="-0.43400000000000005" /><line x1="0.22" y1="-0.374" x2="0.22" y2="-0.43400000000000005" /><line x1="0.22" y1="-0.374" x2="-0.22" y2="-0.374" /><line x1="-0.22" y1="-0.374" x2="-0.22" y2="-0.43400000000000005" /><line x1="-0.22" y1="-0.43400000000000005" x2="0.22" y2="-0.43400000000000005" /><line x1="0.22" y1="-0.374" x2="0.22" y2="-0.43400000000000005" /><line x1="0.22" y1="-0.374" x2="0.19299999999999998" y2="-0.374" /><line x1="0.19299999999999998" y1="-0.374" x2="0.19299999999999998" y2="-0.43400000000000005" /><line x1="0.19299999999999998" y1="-0.43400000000000005" x2="0.22" y2="-0.43400000000000005" /><line x1="0.22" y1="-0.374" x2="0.22" y2="-0.43400000000000005" /><line x1="-0.19299999999999998" y1="-0.374" x2="-0.22" y2="-0.374" /><line x1="-0.22" y1="-0.374" x2="-0.22" y2="-0.43400000000000005" /><line x1="-0.22" y1="-0.43400000000000005" x2="-0.19299999999999998" y2="-0.43400000000000005" /><line x1="-0.19299999999999998" y1="-0.374" x2="-0.19299999999999998" y2="-0.43400000000000005" /><line x1="0.22" y1="-0.434" x2="-0.22" y2="-0.434" /><line x1="-0.22" y1="-0.434" x2="-0.22" y2="-0.44" /><line x1="-0.22" y1="-0.44" x2="0.22" y2="-0.44" /><line x1="0.22" y1="-0.434" x2="0.22" y2="-0.44" /><line x1="0.22" y1="-0.6499999999999999" x2="-0.22" y2="-0.6499999999999999" /><line x1="-0.22" y1="-0.6499999999999999" x2="-0.22" y2="-0.76" /><line x1="-0.22" y1="-0.76" x2="0.22" y2="-0.76" /><line x1="0.22" y1="-0.6499999999999999" x2="0.22" y2="-0.76" /><line x1="0.2475" y1="0" x2="0.22249999999999998" y2="0" /><line x1="0.22249999999999998" y1="0" x2="0.22249999999999998" y2="-0.008" /><line x1="0.22249999999999998" y1="-0.008" x2="0.2475" y2="-0.008" /><line x1="0.2475" y1="0" x2="0.2475" y2="-0.008" /><line x1="-0.22249999999999998" y1="0" x2="-0.2475" y2="0" /><line x1="-0.2475" y1="0" x2="-0.2475" y2="-0.008" /><line x1="-0.2475" y1="-0.008" x2="-0.22249999999999998" y2="-0.008" /><line x1="-0.22249999999999998" y1="0" x2="-0.22249999999999998" y2="-0.008" /><line x1="0.2475" y1="0" x2="0.22249999999999998" y2="0" /><line x1="0.22249999999999998" y1="0" x2="0.22249999999999998" y2="-0.008" /><line x1="0.22249999999999998" y1="-0.008" x2="0.2475" y2="-0.008" /><line x1="0.2475" y1="0" x2="0.2475" y2="-0.008" /><line x1="-0.22249999999999998" y1="0" x2="-0.2475" y2="0" /><line x1="-0.2475" y1="0" x2="-0.2475" y2="-0.008" /><line x1="-0.2475" y1="-0.008" x2="-0.22249999999999998" y2="-0.008" /><line x1="-0.22249999999999998" y1="0" x2="-0.22249999999999998" y2="-0.008" /></g><line x1="0.35" y1="-0.1" x2="0.425" y2="-0.1" stroke="black" stroke-width="0.0025" /><line x1="0.35" y1="-0.2" x2="0.425" y2="-0.2" stroke="black" stroke-width="0.0025" /><line x1="0.35" y1="-0.30000000000000004" x2="0.425" y2="-0.30000000000000004" stroke="black" stroke-width="0.0025" /><line x1="0.35" y1="-0.4" x2="0.425" y2="-0.4" stroke="black" stroke-width="0.0025" /><line x1="0.35" y1="-0.5" x2="0.425" y2="-0.5" stroke="black" stroke-width="0.0025" /><line x1="0.35" y1="-0.6000000000000001" x2="0.425" y2="-0.6000000000000001" stroke="black" stroke-width="0.0025" /><line x1="0.35" y1="-0.7000000000000001" x2="0.425" y2="-0.7000000000000001" stroke="black" stroke-width="0.0025" /></g></g><g transform="translate(380, 272)"><text x="50" y="172" text-anchor="middle" font-size="14" font-family="sans-serif">RIGHT</text><g transform="translate(50, 76) scale(200) translate(0.0024999999999999883, 0.38)"><g class="hidden-lines"><line x1="0.2" y1="-0.008000000000000007" x2="0.2" y2="-0.008000000000000007" /><line x1="0.2" y1="-0.008000000000000007" x2="0.2" y2="-0.434" /><line x1="0.2" y1="-0.434" x2="0.2" y2="-0.434" /><line x1="0.245" y1="-0.008000000000000007" x2="0.245" y2="-0.008000000000000007" /><line x1="0.245" y1="-0.008000000000000007" x2="0.245" y2="-0.434" /><line x1="0.245" y1="-0.434" x2="0.245" y2="-0.434" /><line x1="0.2" y1="-0.008000000000000007" x2="0.245" y2="-0.008000000000000007" /><line x1="0.2" y1="-0.434" x2="0.245" y2="-0.434" /><line x1="0.2" y1="-0.008000000000000007" x2="0.2" y2="-0.008000000000000007" /><line x1="0.2" y1="-0.008000000000000007" x2="0.2" y2="-0.434" /><line x1="0.2" y1="-0.434" x2="0.2" y2="-0.434" /><line x1="0.245" y1="-0.008000000000000007" x2="0.245" y2="-0.008000000000000007" /><line x1="0.245" y1="-0.008000000000000007" x2="0.245" y2="-0.434" /><line x1="0.245" y1="-0.434" x2="0.245" y2="-0.434" /><line x1="0.2" y1="-0.008000000000000007" x2="0.245" y2="-0.008000000000000007" /><line x1="0.2" y1="-0.434" x2="0.245" y2="-0.434" /><line x1="-0.245" y1="-0.008000000000000007" x2="-0.245" y2="-0.008000000000000007" /><line x1="-0.245" y1="-0.008000000000000007" x2="-0.245" y2="-0.76" /><line x1="-0.245" y1="-0.76" x2="-0.245" y2="-0.76" /><line x1="-0.2" y1="-0.008000000000000007" x2="-0.2" y2="-0.008000000000000007" /><line x1="-0.2" y1="-0.008000000000000007" x2="-0.2" y2="-0.76" /><line x1="-0.2" y1="-0.76" x2="-0.2" y2="-0.76" /><line x1="-0.245" y1="-0.008000000000000007" x2="-0.2" y2="-0.008000000000000007" /><line x1="-0.245" y1="-0.76" x2="-0.2" y2="-0.76" /><line x1="-0.245" y1="-0.008000000000000007" x2="-0.245" y2="-0.008000000000000007" /><line x1="-0.245" y1="-0.008000000000000007" x2="-0.245" y2="-0.76" /><line x1="-0.245" y1="-0.76" x2="-0.245" y2="-0.76" /><line x1="-0.2" y1="-0.008000000000000007" x2="-0.2" y2="-0.008000000000000007" /><line x1="-0.2" y1="-0.008000000000000007" x2="-0.2" y2="-0.76" /><line x1="-0.2" y1="-0.76" x2="-0.2" y2="-0.76" /><line x1="-0.245" y1="-0.008000000000000007" x2="-0.2" y2="-0.008000000000000007" /><line x1="-0.245" y1="-0.76" x2="-0.2" y2="-0.76" /><line x1="0.218" y1="-0.374" x2="0.218" y2="-0.374" /><line x1="0.218" y1="-0.374" x2="0.218" y2="-0.43400000000000005" /><line x1="0.218" y1="-0.43400000000000005" x2="0.218" y2="-0.43400000000000005" /><line x1="0.24500000000000002" y1="-0.374" x2="0.24500000000000002" y2="-0.374" /><line x1="0.24500000000000002" y1="-0.374" x2="0.24500000000000002" y2="-0.43400000000000005" /><line x1="0.24500000000000002" y1="-0.43400000000000005" x2="0.24500000000000002" y2="-0.43400000000000005" /><line x1="0.218" y1="-0.374" x2="0.24500000000000002" y2="-0.374" /><line x1="0.218" y1="-0.43400000000000005" x2="0.24500000000000002" y2="-0.43400000000000005" /><line x1="-0.24500000000000002" y1="-0.374" x2="-0.24500000000000002" y2="-0.374" /><line x1="-0.24500000000000002" y1="-0.374" x2="-0.24500000000000002" y2="-0.43400000000000005" /><line x1="-0.24500000000000002" y1="-0.43400000000000005" x2="-0.24500000000000002" y2="-0.43400000000000005" /><line x1="-0.218" y1="-0.374" x2="-0.218" y2="-0.374" /><line x1="-0.218" y1="-0.374" x2="-0.218" y2="-0.43400000000000005" /><line x1="-0.218" y1="-0.43400000000000005" x2="-0.218" y2="-0.43400000000000005" /><line x1="-0.24500000000000002" y1="-0.374" x2="-0.218" y2="-0.374" /><line x1="-0.24500000000000002" y1="-0.43400000000000005" x2="-0.218" y2="-0.43400000000000005" /><line x1="-0.218" y1="-0.374" x2="-0.218" y2="-0.374" /><line x1="-0.218" y1="-0.374" x2="-0.218" y2="-0.43400000000000005" /><line x1="-0.218" y1="-0.43400000000000005" x2="-0.218" y2="-0.43400000000000005" /><line x1="0.218" y1="-0.374" x2="0.218" y2="-0.374" /><line x1="0.218" y1="-0.374" x2="0.218" y2="-0.43400000000000005" /><line x1="0.218" y1="-0.43400000000000005" x2="0.218" y2="-0.43400000000000005" /><line x1="-0.218" y1="-0.374" x2="0.218" y2="-0.374" /><line x1="-0.218" y1="-0.43400000000000005" x2="0.218" y2="-0.43400000000000005" /><line x1="-0.218" y1="-0.374" x2="-0.218" y2="-0.374" /><line x1="-0.218" y1="-0.374" x2="-0.218" y2="-0.43400000000000005" /><line x1="-0.218" y1="-0.43400000000000005" x2="-0.218" y2="-0.43400000000000005" /><line x1="0.218" y1="-0.374" x2="0.218" y2="-0.374" /><line x1="0.218" y1="-0.374" x2="0.218" y2="-0.43400000000000005" /><line x1="0.218" y1="-0.43400000000000005" x2="0.218" y2="-0.43400000000000005" /><line x1="-0.218" y1="-0.374" x2="0.218" y2="-0.374" /><line x1="-0.218" y1="-0.43400000000000005" x2="0.218" y2="-0.43400000000000005" /><line x1="-0.245" y1="-0.434" x2="-0.245" y2="-0.434" /><line x1="-0.245" y1="-0.434" x2="-0.245" y2="-0.44" /><line x1="-0.245" y1="-0.44" x2="-0.245" y2="-0.44" /><line x1="0.245" y1="-0.434" x2="0.245" y2="-0.434" /><line x1="0.245" y1="-0.434" x2="0.245" y2="-0.44" /><line x1="0.245" y1="-0.44" x2="0.245" y2="-0.44" /><line x1="-0.245" y1="-0.434" x2="0.245" y2="-0.434" /><line x1="-0.245" y1="-0.44" x2="0.245" y2="-0.44" /><line x1="-0.25" y1="-0.6499999999999999" x2="-0.25" y2="-0.6499999999999999" /><line x1="-0.25" y1="-0.6499999999999999" x2="-0.25" y2="-0.76" /><line x1="-0.25" y1="-0.76" x2="-0.25" y2="-0.76" /><line x1="-0.2" y1="-0.6499999999999999" x2="-0.2" y2="-0.6499999999999999" /><line x1="-0.2" y1="-0.6499999999999999" x2="-0.2" y2="-0.76" /><line x1="-0.2" y1="-0.76" x2="-0.2" y2="-0.76" /><line x1="-0.25" y1="-0.6499999999999999" x2="-0.2" y2="-0.6499999999999999" /><line x1="-0.25" y1="-0.76" x2="-0.2" y2="-0.76" /><line x1="0.2025" y1="0" x2="0.2025" y2="0" /><line x1="0.2025" y1="0" x2="0.2025" y2="-0.008" /><line x1="0.2025" y1="-0.008" x2="0.2025" y2="-0.008" /><line x1="0.2425" y1="0" x2="0.2425" y2="0" /><line x1="0.2425" y1="0" x2="0.2425" y2="-0.008" /><line x1="0.2425" y1="-0.008" x2="0.2425" y2="-0.008" /><line x1="0.2025" y1="0" x2="0.2425" y2="0" /><line x1="0.2025" y1="-0.008" x2="0.2425" y2="-0.008" /><line x1="0.2025" y1="0" x2="0.2025" y2="0" /><line x1="0.2025" y1="0" x2="0.2025" y2="-0.008" /><line x1="0.2025" y1="-0.008" x2="0.2025" y2="-0.008" /><line x1="0.2425" y1="0" x2="0.2425" y2="0" /><line x1="0.2425" y1="0" x2="0.2425" y2="-0.008" /><line x1="0.2425" y1="-0.008" x2="0.2425" y2="-0.008" /><line x1="0.2025" y1="0" x2="0.2425" y2="0" /><line x1="0.2025" y1="-0.008" x2="0.2425" y2="-0.008" /><line x1="-0.2425" y1="0" x2="-0.2425" y2="0" /><line x1="-0.2425" y1="0" x2="-0.2425" y2="-0.008" /><line x1="-0.2425" y1="-0.008" x2="-0.2425" y2="-0.008" /><line x1="-0.2025" y1="0" x2="-0.2025" y2="0" /><line x1="-0.2025" y1="0" x2="-0.2025" y2="-0.008" /><line x1="-0.2025" y1="-0.008" x2="-0.2025" y2="-0.008" /><line x1="-0.2425" y1="0" x2="-0.2025" y2="0" /><line x1="-0.2425" y1="-0.008" x2="-0.2025" y2="-0.008" /><line x1="-0.2425" y1="0" x2="-0.2425" y2="0" /><line x1="-0.2425" y1="0" x2="-0.2425" y2="-0.008" /><line x1="-0.2425" y1="-0.008" x2="-0.2425" y2="-0.008" /><line x1="-0.2025" y1="0" x2="-0.2025" y2="0" /><line x1="-0.2025" y1="0" x2="-0.2025" y2="-0.008" /><line x1="-0.2025" y1="-0.008" x2="-0.2025" y2="-0.008" /><line x1="-0.2425" y1="0" x2="-0.2025" y2="0" /><line x1="-0.2425" y1="-0.008" x2="-0.2025" y2="-0.008" /></g><g class="visible-lines"><line x1="0.2" y1="-0.008000000000000007" x2="0.2" y2="-0.434" /><line x1="0.245" y1="-0.008000000000000007" x2="0.245" y2="-0.434" /><line x1="0.2" y1="-0.008000000000000007" x2="0.245" y2="-0.008000000000000007" /><line x1="0.2" y1="-0.434" x2="0.245" y2="-0.434" /><line x1="0.2" y1="-0.008000000000000007" x2="0.2" y2="-0.434" /><line x1="0.245" y1="-0.008000000000000007" x2="0.245" y2="-0.434" /><line x1="0.2" y1="-0.008000000000000007" x2="0.245" y2="-0.008000000000000007" /><line x1="0.2" y1="-0.434" x2="0.245" y2="-0.434" /><line x1="-0.245" y1="-0.008000000000000007" x2="-0.245" y2="-0.76" /><line x1="-0.2" y1="-0.008000000000000007" x2="-0.2" y2="-0.76" /><line x1="-0.245" y1="-0.008000000000000007" x2="-0.2" y2="-0.008000000000000007" /><line x1="-0.245" y1="-0.76" x2="-0.2" y2="-0.76" /><line x1="-0.245" y1="-0.008000000000000007" x2="-0.245" y2="-0.76" /><line x1="-0.2" y1="-0.008000000000000007" x2="-0.2" y2="-0.76" /><line x1="-0.245" y1="-0.008000000000000007" x2="-0.2" y2="-0.008000000000000007" /><line x1="-0.245" y1="-0.76" x2="-0.2" y2="-0.76" /><line x1="0.218" y1="-0.374" x2="0.218" y2="-0.43400000000000005" /><line x1="0.24500000000000002" y1="-0.374" x2="0.24500000000000002" y2="-0.43400000000000005" /><line x1="0.218" y1="-0.374" x2="0.24500000000000002" y2="-0.374" /><line x1="0.218" y1="-0.43400000000000005" x2="0.24500000000000002" y2="-0.43400000000000005" /><line x1="-0.24500000000000002" y1="-0.374" x2="-0.24500000000000002" y2="-0.43400000000000005" /><line x1="-0.218" y1="-0.374" x2="-0.218" y2="-0.43400000000000005" /><line x1="-0.24500000000000002" y1="-0.374" x2="-0.218" y2="-0.374" /><line x1="-0.24500000000000002" y1="-0.43400000000000005" x2="-0.218" y2="-0.43400000000000005" /><line x1="-0.218" y1="-0.374" x2="-0.218" y2="-0.43400000000000005" /><line x1="0.218" y1="-0.374" x2="0.218" y2="-0.43400000000000005" /><line x1="-0.218" y1="-0.374" x2="0.218" y2="-0.374" /><line x1="-0.218" y1="-0.43400000000000005" x2="0.218" y2="-0.43400000000000005" /><line x1="-0.218" y1="-0.374" x2="-0.218" y2="-0.43400000000000005" /><line x1="0.218" y1="-0.374" x2="0.218" y2="-0.43400000000000005" /><line x1="-0.218" y1="-0.374" x2="0.218" y2="-0.374" /><line x1="-0.218" y1="-0.43400000000000005" x2="0.218" y2="-0.43400000000000005" /><line x1="-0.245" y1="-0.434" x2="-0.245" y2="-0.44" /><line x1="0.245" y1="-0.434" x2="0.245" y2="-0.44" /><line x1="-0.245" y1="-0.434" x2="0.245" y2="-0.434" /><line x1="-0.245" y1="-0.44" x2="0.245" y2="-0.44" /><line x1="-0.25" y1="-0.6499999999999999" x2="-0.25" y2="-0.76" /><line x1="-0.2" y1="-0.6499999999999999" x2="-0.2" y2="-0.76" /><line x1="-0.25" y1="-0.6499999999999999" x2="-0.2" y2="-0.6499999999999999" /><line x1="-0.25" y1="-0.76" x2="-0.2" y2="-0.76" /><line x1="0.2025" y1="0" x2="0.2025" y2="-0.008" /><line x1="0.2425" y1="0" x2="0.2425" y2="-0.008" /><line x1="0.2025" y1="0" x2="0.2425" y2="0" /><line x1="0.2025" y1="-0.008" x2="0.2425" y2="-0.008" /><line x1="0.2025" y1="0" x2="0.2025" y2="-0.008" /><line x1="0.2425" y1="0" x2="0.2425" y2="-0.008" /><line x1="0.2025" y1="0" x2="0.2425" y2="0" /><line x1="0.2025" y1="-0.008" x2="0.2425" y2="-0.008" /><line x1="-0.2425" y1="0" x2="-0.2425" y2="-0.008" /><line x1="-0.2025" y1="0" x2="-0.2025" y2="-0.008" /><line x1="-0.2425" y1="0" x2="-0.2025" y2="0" /><line x1="-0.2425" y1="-0.008" x2="-0.2025" y2="-0.008" /><line x1="-0.2425" y1="0" x2="-0.2425" y2="-0.008" /><line x1="-0.2025" y1="0" x2="-0.2025" y2="-0.008" /><line x1="-0.2425" y1="0" x2="-0.2025" y2="0" /><line x1="-0.2425" y1="-0.008" x2="-0.2025" y2="-0.008" /></g></g></g><g transform="translate(540, 272)"><text x="50" y="172" text-anchor="middle" font-size="14" font-family="sans-serif">BACK</text><g transform="translate(50, 76) scale(200) translate(0, 0.38)"><g class="hidden-lines"><line x1="-0.25" y1="-0.008000000000000007" x2="-0.21999999999999997" y2="-0.008000000000000007" /><line x1="-0.21999999999999997" y1="-0.008000000000000007" x2="-0.21999999999999997" y2="-0.434" /><line x1="-0.21999999999999997" y1="-0.434" x2="-0.25" y2="-0.434" /><line x1="-0.25" y1="-0.008000000000000007" x2="-0.25" y2="-0.434" /><line x1="-0.25" y1="-0.008000000000000007" x2="-0.25" y2="-0.008000000000000007" /><line x1="-0.21999999999999997" y1="-0.008000000000000007" x2="-0.21999999999999997" y2="-0.008000000000000007" /><line x1="-0.21999999999999997" y1="-0.434" x2="-0.21999999999999997" y2="-0.434" /><line x1="-0.25" y1="-0.434" x2="-0.25" y2="-0.434" /><line x1="0.21999999999999997" y1="-0.008000000000000007" x2="0.25" y2="-0.008000000000000007" /><line x1="0.25" y1="-0.008000000000000007" x2="0.25" y2="-0.434" /><line x1="0.25" y1="-0.434" x2="0.21999999999999997" y2="-0.434" /><line x1="0.21999999999999997" y1="-0.008000000000000007" x2="0.21999999999999997" y2="-0.434" /><line x1="0.21999999999999997" y1="-0.008000000000000007" x2="0.21999999999999997" y2="-0.008000000000000007" /><line x1="0.25" y1="-0.008000000000000007" x2="0.25" y2="-0.008000000000000007" /><line x1="0.25" y1="-0.434" x2="0.25" y2="-0.434" /><line x1="0.21999999999999997" y1="-0.434" x2="0.21999999999999997" y2="-0.434" /><line x1="-0.25" y1="-0.008000000000000007" x2="-0.21999999999999997" y2="-0.008000000000000007" /><line x1="-0.21999999999999997" y1="-0.008000000000000007" x2="-0.21999999999999997" y2="-0.76" /><line x1="-0.21999999999999997" y1="-0.76" x2="-0.25" y2="-0.76" /><line x1="-0.25" y1="-0.008000000000000007" x2="-0.25" y2="-0.76" /><line x1="-0.25" y1="-0.008000000000000007" x2="-0.25" y2="-0.008000000000000007" /><line x1="-0.21999999999999997" y1="-0.008000000000000007" x2="-0.21999999999999997" y2="-0.008000000000000007" /><line x1="-0.21999999999999997" y1="-0.76" x2="-0.21999999999999997" y2="-0.76" /><line x1="-0.25" y1="-0.76" x2="-0.25" y2="-0.76" /><line x1="0.21999999999999997" y1="-0.008000000000000007" x2="0.25" y2="-0.008000000000000007" /><line x1="0.25" y1="-0.008000000000000007" x2="0.25" y2="-0.76" /><line x1="0.25" y1="-0.76" x2="0.21999999999999997" y2="-0.76" /><line x1="0.21999999999999997" y1="-0.008000000000000007" x2="0.21999999999999997" y2="-0.76" /><line x1="0.21999999999999997" y1="-0.008000000000000007" x2="0.21999999999999997" y2="-0.008000000000000007" /><line x1="0.25" y1="-0.008000000000000007" x2="0.25" y2="-0.008000000000000007" /><line x1="0.25" y1="-0.76" x2="0.25" y2="-0.76" /><line x1="0.21999999999999997" y1="-0.76" x2="0.21999999999999997" y2="-0.76" /><line x1="-0.22" y1="-0.374" x2="0.22" y2="-0.374" /><line x1="0.22" y1="-0.374" x2="0.22" y2="-0.43400000000000005" /><line x1="0.22" y1="-0.43400000000000005" x2="-0.22" y2="-0.43400000000000005" /><line x1="-0.22" y1="-0.374" x2="-0.22" y2="-0.43400000000000005" /><line x1="-0.22" y1="-0.374" x2="-0.22" y2="-0.374" /><line x1="0.22" y1="-0.374" x2="0.22" y2="-0.374" /><line x1="0.22" y1="-0.43400000000000005" x2="0.22" y2="-0.43400000000000005" /><line x1="-0.22" y1="-0.43400000000000005" x2="-0.22" y2="-0.43400000000000005" /><line x1="-0.22" y1="-0.374" x2="0.22" y2="-0.374" /><line x1="0.22" y1="-0.374" x2="0.22" y2="-0.43400000000000005" /><line x1="0.22" y1="-0.43400000000000005" x2="-0.22" y2="-0.43400000000000005" /><line x1="-0.22" y1="-0.374" x2="-0.22" y2="-0.43400000000000005" /><line x1="-0.22" y1="-0.374" x2="-0.22" y2="-0.374" /><line x1="0.22" y1="-0.374" x2="0.22" y2="-0.374" /><line x1="0.22" y1="-0.43400000000000005" x2="0.22" y2="-0.43400000000000005" /><line x1="-0.22" y1="-0.43400000000000005" x2="-0.22" y2="-0.43400000000000005" /><line x1="-0.22" y1="-0.374" x2="-0.19299999999999998" y2="-0.374" /><line x1="-0.19299999999999998" y1="-0.374" x2="-0.19299999999999998" y2="-0.43400000000000005" /><line x1="-0.19299999999999998" y1="-0.43400000000000005" x2="-0.22" y2="-0.43400000000000005" /><line x1="-0.22" y1="-0.374" x2="-0.22" y2="-0.43400000000000005" /><line x1="-0.22" y1="-0.374" x2="-0.22" y2="-0.374" /><line x1="-0.19299999999999998" y1="-0.374" x2="-0.19299999999999998" y2="-0.374" /><line x1="-0.19299999999999998" y1="-0.43400000000000005" x2="-0.19299999999999998" y2="-0.43400000000000005" /><line x1="-0.22" y1="-0.43400000000000005" x2="-0.22" y2="-0.43400000000000005" /><line x1="0.19299999999999998" y1="-0.374" x2="0.22" y2="-0.374" /><line x1="0.22" y1="-0.374" x2="0.22" y2="-0.43400000000000005" /><line x1="0.22" y1="-0.43400000000000005" x2="0.19299999999999998" y2="-0.43400000000000005" /><line x1="0.19299999999999998" y1="-0.374" x2="0.19299999999999998" y2="-0.43400000000000005" /><line x1="0.19299999999999998" y1="-0.374" x2="0.19299999999999998" y2="-0.374" /><line x1="0.22" y1="-0.374" x2="0.22" y2="-0.374" /><line x1="0.22" y1="-0.43400000000000005" x2="0.22" y2="-0.43400000000000005" /><line x1="0.19299999999999998" y1="-0.43400000000000005" x2="0.19299999999999998" y2="-0.43400000000000005" /><line x1="-0.22" y1="-0.434" x2="0.22" y2="-0.434" /><line x1="0.22" y1="-0.434" x2="0.22" y2="-0.44" /><line x1="0.22" y1="-0.44" x2="-0.22" y2="-0.44" /><line x1="-0.22" y1="-0.434" x2="-0.22" y2="-0.44" /><line x1="-0.22" y1="-0.434" x2="-0.22" y2="-0.434" /><line x1="0.22" y1="-0.434" x2="0.22" y2="-0.434" /><line x1="0.22" y1="-0.44" x2="0.22" y2="-0.44" /><line x1="-0.22" y1="-0.44" x2="-0.22" y2="-0.44" /><line x1="-0.22" y1="-0.6499999999999999" x2="0.22" y2="-0.6499999999999999" /><line x1="0.22" y1="-0.6499999999999999" x2="0.22" y2="-0.76" /><line x1="0.22" y1="-0.76" x2="-0.22" y2="-0.76" /><line x1="-0.22" y1="-0.6499999999999999" x2="-0.22" y2="-0.76" /><line x1="-0.22" y1="-0.6499999999999999" x2="-0.22" y2="-0.6499999999999999" /><line x1="0.22" y1="-0.6499999999999999" x2="0.22" y2="-0.6499999999999999" /><line x1="0.22" y1="-0.76" x2="0.22" y2="-0.76" /><line x1="-0.22" y1="-0.76" x2="-0.22" y2="-0.76" /><line x1="-0.2475" y1="0" x2="-0.22249999999999998" y2="0" /><line x1="-0.22249999999999998" y1="0" x2="-0.22249999999999998" y2="-0.008" /><line x1="-0.22249999999999998" y1="-0.008" x2="-0.2475" y2="-0.008" /><line x1="-0.2475" y1="0" x2="-0.2475" y2="-0.008" /><line x1="-0.2475" y1="0" x2="-0.2475" y2="0" /><line x1="-0.22249999999999998" y1="0" x2="-0.22249999999999998" y2="0" /><line x1="-0.22249999999999998" y1="-0.008" x2="-0.22249999999999998" y2="-0.008" /><line x1="-0.2475" y1="-0.008" x2="-0.2475" y2="-0.008" /><line x1="0.22249999999999998" y1="0" x2="0.2475" y2="0" /><line x1="0.2475" y1="0" x2="0.2475" y2="-0.008" /><line x1="0.2475" y1="-0.008" x2="0.22249999999999998" y2="-0.008" /><line x1="0.22249999999999998" y1="0" x2="0.22249999999999998" y2="-0.008" /><line x1="0.22249999999999998" y1="0" x2="0.22249999999999998" y2="0" /><line x1="0.2475" y1="0" x2="0.2475" y2="0" /><line x1="0.2475" y1="-0.008" x2="0.2475" y2="-0.008" /><line x1="0.22249999999999998" y1="-0.008" x2="0.22249999999999998" y2="-0.008" /><line x1="-0.2475" y1="0" x2="-0.22249999999999998" y2="0" /><line x1="-0.22249999999999998" y1="0" x2="-0.22249999999999998" y2="-0.008" /><line x1="-0.22249999999999998" y1="-0.008" x2="-0.2475" y2="-0.008" /><line x1="-0.2475" y1="0" x2="-0.2475" y2="-0.008" /><line x1="-0.2475" y1="0" x2="-0.2475" y2="0" /><line x1="-0.22249999999999998" y1="0" x2="-0.22249999999999998" y2="0" /><line x1="-0.22249999999999998" y1="-0.008" x2="-0.22249999999999998" y2="-0.008" /><line x1="-0.2475" y1="-0.008" x2="-0.2475" y2="-0.008" /><line x1="0.22249999999999998" y1="0" x2="0.2475" y2="0" /><line x1="0.2475" y1="0" x2="0.2475" y2="-0.008" /><line x1="0.2475" y1="-0.008" x2="0.22249999999999998" y2="-0.008" /><line x1="0.22249999999999998" y1="0" x2="0.22249999999999998" y2="-0.008" /><line x1="0.22249999999999998" y1="0" x2="0.22249999999999998" y2="0" /><line x1="0.2475" y1="0" x2="0.2475" y2="0" /><line x1="0.2475" y1="-0.008" x2="0.2475" y2="-0.008" /><line x1="0.22249999999999998" y1="-0.008" x2="0.22249999999999998" y2="-0.008" /></g><g class="visible-lines"><line x1="-0.25" y1="-0.008000000000000007" x2="-0.21999999999999997" y2="-0.008000000000000007" /><line x1="-0.21999999999999997" y1="-0.008000000000000007" x2="-0.21999999999999997" y2="-0.434" /><line x1="-0.21999999999999997" y1="-0.434" x2="-0.25" y2="-0.434" /><line x1="-0.25" y1="-0.008000000000000007" x2="-0.25" y2="-0.434" /><line x1="0.21999999999999997" y1="-0.008000000000000007" x2="0.25" y2="-0.008000000000000007" /><line x1="0.25" y1="-0.008000000000000007" x2="0.25" y2="-0.434" /><line x1="0.25" y1="-0.434" x2="0.21999999999999997" y2="-0.434" /><line x1="0.21999999999999997" y1="-0.008000000000000007" x2="0.21999999999999997" y2="-0.434" /><line x1="-0.25" y1="-0.008000000000000007" x2="-0.21999999999999997" y2="-0.008000000000000007" /><line x1="-0.21999999999999997" y1="-0.008000000000000007" x2="-0.21999999999999997" y2="-0.76" /><line x1="-0.21999999999999997" y1="-0.76" x2="-0.25" y2="-0.76" /><line x1="-0.25" y1="-0.008000000000000007" x2="-0.25" y2="-0.76" /><line x1="0.21999999999999997" y1="-0.008000000000000007" x2="0.25" y2="-0.008000000000000007" /><line x1="0.25" y1="-0.008000000000000007" x2="0.25" y2="-0.76" /><line x1="0.25" y1="-0.76" x2="0.21999999999999997" y2="-0.76" /><line x1="0.21999999999999997" y1="-0.008000000000000007" x2="0.21999999999999997" y2="-0.76" /><line x1="-0.22" y1="-0.374" x2="0.22" y2="-0.374" /><line x1="0.22" y1="-0.374" x2="0.22" y2="-0.43400000000000005" /><line x1="0.22" y1="-0.43400000000000005" x2="-0.22" y2="-0.43400000000000005" /><line x1="-0.22" y1="-0.374" x2="-0.22" y2="-0.43400000000000005" /><line x1="-0.22" y1="-0.374" x2="0.22" y2="-0.374" /><line x1="0.22" y1="-0.374" x2="0.22" y2="-0.43400000000000005" /><line x1="0.22" y1="-0.43400000000000005" x2="-0.22" y2="-0.43400000000000005" /><line x1="-0.22" y1="-0.374" x2="-0.22" y2="-0.43400000000000005" /><line x1="-0.22" y1="-0.374" x2="-0.19299999999999998" y2="-0.374" /><line x1="-0.19299999999999998" y1="-0.374" x2="-0.19299999999999998" y2="-0.43400000000000005" /><line x1="-0.19299999999999998" y1="-0.43400000000000005" x2="-0.22" y2="-0.43400000000000005" /><line x1="-0.22" y1="-0.374" x2="-0.22" y2="-0.43400000000000005" /><line x1="0.19299999999999998" y1="-0.374" x2="0.22" y2="-0.374" /><line x1="0.22" y1="-0.374" x2="0.22" y2="-0.43400000000000005" /><line x1="0.22" y1="-0.43400000000000005" x2="0.19299999999999998" y2="-0.43400000000000005" /><line x1="0.19299999999999998" y1="-0.374" x2="0.19299999999999998" y2="-0.43400000000000005" /><line x1="-0.22" y1="-0.434" x2="0.22" y2="-0.434" /><line x1="0.22" y1="-0.434" x2="0.22" y2="-0.44" /><line x1="0.22" y1="-0.44" x2="-0.22" y2="-0.44" /><line x1="-0.22" y1="-0.434" x2="-0.22" y2="-0.44" /><line x1="-0.22" y1="-0.6499999999999999" x2="0.22" y2="-0.6499999999999999" /><line x1="0.22" y1="-0.6499999999999999" x2="0.22" y2="-0.76" /><line x1="0.22" y1="-0.76" x2="-0.22" y2="-0.76" /><line x1="-0.22" y1="-0.6499999999999999" x2="-0.22" y2="-0.76" /><line x1="-0.2475" y1="0" x2="-0.22249999999999998" y2="0" /><line x1="-0.22249999999999998" y1="0" x2="-0.22249999999999998" y2="-0.008" /><line x1="-0.22249999999999998" y1="-0.008" x2="-0.2475" y2="-0.008" /><line x1="-0.2475" y1="0" x2="-0.2475" y2="-0.008" /><line x1="0.22249999999999998" y1="0" x2="0.2475" y2="0" /><line x1="0.2475" y1="0" x2="0.2475" y2="-0.008" /><line x1="0.2475" y1="-0.008" x2="0.22249999999999998" y2="-0.008" /><line x1="0.22249999999999998" y1="0" x2="0.22249999999999998" y2="-0.008" /><line x1="-0.2475" y1="0" x2="-0.22249999999999998" y2="0" /><line x1="-0.22249999999999998" y1="0" x2="-0.22249999999999998" y2="-0.008" /><line x1="-0.22249999999999998" y1="-0.008" x2="-0.2475" y2="-0.008" /><line x1="-0.2475" y1="0" x2="-0.2475" y2="-0.008" /><line x1="0.22249999999999998" y1="0" x2="0.2475" y2="0" /><line x1="0.2475" y1="0" x2="0.2475" y2="-0.008" /><line x1="0.2475" y1="-0.008" x2="0.22249999999999998" y2="-0.008" /><line x1="0.22249999999999998" y1="0" x2="0.22249999999999998" y2="-0.008" /></g></g></g><g transform="translate(220, 484)"><text x="50" y="172" text-anchor="middle" font-size="14" font-family="sans-serif">BOTTOM</text><g transform="translate(50, 76) scale(200) translate(0, -0.0024999999999999883)"><g class="hidden-lines"><line x1="0.25" y1="-0.2" x2="0.21999999999999997" y2="-0.2" /><line x1="0.21999999999999997" y1="-0.2" x2="0.21999999999999997" y2="-0.2" /><line x1="0.25" y1="-0.2" x2="0.25" y2="-0.2" /><line x1="0.25" y1="-0.245" x2="0.21999999999999997" y2="-0.245" /><line x1="0.21999999999999997" y1="-0.245" x2="0.21999999999999997" y2="-0.245" /><line x1="0.25" y1="-0.245" x2="0.25" y2="-0.245" /><line x1="0.25" y1="-0.2" x2="0.25" y2="-0.245" /><line x1="0.21999999999999997" y1="-0.2" x2="0.21999999999999997" y2="-0.245" /><line x1="-0.21999999999999997" y1="-0.2" x2="-0.25" y2="-0.2" /><line x1="-0.25" y1="-0.2" x2="-0.25" y2="-0.2" /><line x1="-0.21999999999999997" y1="-0.2" x2="-0.21999999999999997" y2="-0.2" /><line x1="-0.21999999999999997" y1="-0.245" x2="-0.25" y2="-0.245" /><line x1="-0.25" y1="-0.245" x2="-0.25" y2="-0.245" /><line x1="-0.21999999999999997" y1="-0.245" x2="-0.21999999999999997" y2="-0.245" /><line x1="-0.21999999999999997" y1="-0.2" x2="-0.21999999999999997" y2="-0.245" /><line x1="-0.25" y1="-0.2" x2="-0.25" y2="-0.245" /><line x1="0.25" y1="0.245" x2="0.21999999999999997" y2="0.245" /><line x1="0.21999999999999997" y1="0.245" x2="0.21999999999999997" y2="0.245" /><line x1="0.25" y1="0.245" x2="0.25" y2="0.245" /><line x1="0.25" y1="0.2" x2="0.21999999999999997" y2="0.2" /><line x1="0.21999999999999997" y1="0.2" x2="0.21999999999999997" y2="0.2" /><line x1="0.25" y1="0.2" x2="0.25" y2="0.2" /><line x1="0.25" y1="0.245" x2="0.25" y2="0.2" /><line x1="0.21999999999999997" y1="0.245" x2="0.21999999999999997" y2="0.2" /><line x1="-0.21999999999999997" y1="0.245" x2="-0.25" y2="0.245" /><line x1="-0.25" y1="0.245" x2="-0.25" y2="0.245" /><line x1="-0.21999999999999997" y1="0.245" x2="-0.21999999999999997" y2="0.245" /><line x1="-0.21999999999999997" y1="0.2" x2="-0.25" y2="0.2" /><line x1="-0.25" y1="0.2" x2="-0.25" y2="0.2" /><line x1="-0.21999999999999997" y1="0.2" x2="-0.21999999999999997" y2="0.2" /><line x1="-0.21999999999999997" y1="0.245" x2="-0.21999999999999997" y2="0.2" /><line x1="-0.25" y1="0.245" x2="-0.25" y2="0.2" /><line x1="0.22" y1="-0.218" x2="-0.22" y2="-0.218" /><line x1="-0.22" y1="-0.218" x2="-0.22" y2="-0.218" /><line x1="0.22" y1="-0.218" x2="0.22" y2="-0.218" /><line x1="0.22" y1="-0.24500000000000002" x2="-0.22" y2="-0.24500000000000002" /><line x1="-0.22" y1="-0.24500000000000002" x2="-0.22" y2="-0.24500000000000002" /><line x1="0.22" y1="-0.24500000000000002" x2="0.22" y2="-0.24500000000000002" /><line x1="0.22" y1="-0.218" x2="0.22" y2="-0.24500000000000002" /><line x1="-0.22" y1="-0.218" x2="-0.22" y2="-0.24500000000000002" /><line x1="0.22" y1="0.24500000000000002" x2="-0.22" y2="0.24500000000000002" /><line x1="-0.22" y1="0.24500000000000002" x2="-0.22" y2="0.24500000000000002" /><line x1="0.22" y1="0.24500000000000002" x2="0.22" y2="0.24500000000000002" /><line x1="0.22" y1="0.218" x2="-0.22" y2="0.218" /><line x1="-0.22" y1="0.218" x2="-0.22" y2="0.218" /><line x1="0.22" y1="0.218" x2="0.22" y2="0.218" /><line x1="0.22" y1="0.24500000000000002" x2="0.22" y2="0.218" /><line x1="-0.22" y1="0.24500000000000002" x2="-0.22" y2="0.218" /><line x1="0.22" y1="0.218" x2="0.19299999999999998" y2="0.218" /><line x1="0.19299999999999998" y1="0.218" x2="0.19299999999999998" y2="0.218" /><line x1="0.22" y1="0.218" x2="0.22" y2="0.218" /><line x1="0.22" y1="-0.218" x2="0.19299999999999998" y2="-0.218" /><line x1="0.19299999999999998" y1="-0.218" x2="0.19299999999999998" y2="-0.218" /><line x1="0.22" y1="-0.218" x2="0.22" y2="-0.218" /><line x1="0.22" y1="0.218" x2="0.22" y2="-0.218" /><line x1="0.19299999999999998" y1="0.218" x2="0.19299999999999998" y2="-0.218" /><line x1="-0.19299999999999998" y1="0.218" x2="-0.22" y2="0.218" /><line x1="-0.22" y1="0.218" x2="-0.22" y2="0.218" /><line x1="-0.19299999999999998" y1="0.218" x2="-0.19299999999999998" y2="0.218" /><line x1="-0.19299999999999998" y1="-0.218" x2="-0.22" y2="-0.218" /><line x1="-0.22" y1="-0.218" x2="-0.22" y2="-0.218" /><line x1="-0.19299999999999998" y1="-0.218" x2="-0.19299999999999998" y2="-0.218" /><line x1="-0.19299999999999998" y1="0.218" x2="-0.19299999999999998" y2="-0.218" /><line x1="-0.22" y1="0.218" x2="-0.22" y2="-0.218" /><line x1="0.22" y1="0.245" x2="-0.22" y2="0.245" /><line x1="-0.22" y1="0.245" x2="-0.22" y2="0.245" /><line x1="0.22" y1="0.245" x2="0.22" y2="0.245" /><line x1="0.22" y1="-0.245" x2="-0.22" y2="-0.245" /><line x1="-0.22" y1="-0.245" x2="-0.22" y2="-0.245" /><line x1="0.22" y1="-0.245" x2="0.22" y2="-0.245" /><line x1="0.22" y1="0.245" x2="0.22" y2="-0.245" /><line x1="-0.22" y1="0.245" x2="-0.22" y2="-0.245" /><line x1="0.22" y1="0.25" x2="-0.22" y2="0.25" /><line x1="-0.22" y1="0.25" x2="-0.22" y2="0.25" /><line x1="0.22" y1="0.25" x2="0.22" y2="0.25" /><line x1="0.22" y1="0.2" x2="-0.22" y2="0.2" /><line x1="-0.22" y1="0.2" x2="-0.22" y2="0.2" /><line x1="0.22" y1="0.2" x2="0.22" y2="0.2" /><line x1="0.22" y1="0.25" x2="0.22" y2="0.2" /><line x1="-0.22" y1="0.25" x2="-0.22" y2="0.2" /><line x1="0.2475" y1="-0.2025" x2="0.22249999999999998" y2="-0.2025" /><line x1="0.22249999999999998" y1="-0.2025" x2="0.22249999999999998" y2="-0.2025" /><line x1="0.2475" y1="-0.2025" x2="0.2475" y2="-0.2025" /><line x1="0.2475" y1="-0.2425" x2="0.22249999999999998" y2="-0.2425" /><line x1="0.22249999999999998" y1="-0.2425" x2="0.22249999999999998" y2="-0.2425" /><line x1="0.2475" y1="-0.2425" x2="0.2475" y2="-0.2425" /><line x1="0.2475" y1="-0.2025" x2="0.2475" y2="-0.2425" /><line x1="0.22249999999999998" y1="-0.2025" x2="0.22249999999999998" y2="-0.2425" /><line x1="-0.22249999999999998" y1="-0.2025" x2="-0.2475" y2="-0.2025" /><line x1="-0.2475" y1="-0.2025" x2="-0.2475" y2="-0.2025" /><line x1="-0.22249999999999998" y1="-0.2025" x2="-0.22249999999999998" y2="-0.2025" /><line x1="-0.22249999999999998" y1="-0.2425" x2="-0.2475" y2="-0.2425" /><line x1="-0.2475" y1="-0.2425" x2="-0.2475" y2="-0.2425" /><line x1="-0.22249999999999998" y1="-0.2425" x2="-0.22249999999999998" y2="-0.2425" /><line x1="-0.22249999999999998" y1="-0.2025" x2="-0.22249999999999998" y2="-0.2425" /><line x1="-0.2475" y1="-0.2025" x2="-0.2475" y2="-0.2425" /><line x1="0.2475" y1="0.2425" x2="0.22249999999999998" y2="0.2425" /><line x1="0.22249999999999998" y1="0.2425" x2="0.22249999999999998" y2="0.2425" /><line x1="0.2475" y1="0.2425" x2="0.2475" y2="0.2425" /><line x1="0.2475" y1="0.2025" x2="0.22249999999999998" y2="0.2025" /><line x1="0.22249999999999998" y1="0.2025" x2="0.22249999999999998" y2="0.2025" /><line x1="0.2475" y1="0.2025" x2="0.2475" y2="0.2025" /><line x1="0.2475" y1="0.2425" x2="0.2475" y2="0.2025" /><line x1="0.22249999999999998" y1="0.2425" x2="0.22249999999999998" y2="0.2025" /><line x1="-0.22249999999999998" y1="0.2425" x2="-0.2475" y2="0.2425" /><line x1="-0.2475" y1="0.2425" x2="-0.2475" y2="0.2425" /><line x1="-0.22249999999999998" y1="0.2425" x2="-0.22249999999999998" y2="0.2425" /><line x1="-0.22249999999999998" y1="0.2025" x2="-0.2475" y2="0.2025" /><line x1="-0.2475" y1="0.2025" x2="-0.2475" y2="0.2025" /><line x1="-0.22249999999999998" y1="0.2025" x2="-0.22249999999999998" y2="0.2025" /><line x1="-0.22249999999999998" y1="0.2425" x2="-0.22249999999999998" y2="0.2025" /><line x1="-0.2475" y1="0.2425" x2="-0.2475" y2="0.2025" /></g><g class="visible-lines"><line x1="0.21999999999999997" y1="-0.2" x2="0.25" y2="-0.2" /><line x1="0.21999999999999997" y1="-0.245" x2="0.25" y2="-0.245" /><line x1="0.21999999999999997" y1="-0.2" x2="0.21999999999999997" y2="-0.245" /><line x1="0.25" y1="-0.2" x2="0.25" y2="-0.245" /><line x1="-0.25" y1="-0.2" x2="-0.21999999999999997" y2="-0.2" /><line x1="-0.25" y1="-0.245" x2="-0.21999999999999997" y2="-0.245" /><line x1="-0.25" y1="-0.2" x2="-0.25" y2="-0.245" /><line x1="-0.21999999999999997" y1="-0.2" x2="-0.21999999999999997" y2="-0.245" /><line x1="0.21999999999999997" y1="0.245" x2="0.25" y2="0.245" /><line x1="0.21999999999999997" y1="0.2" x2="0.25" y2="0.2" /><line x1="0.21999999999999997" y1="0.245" x2="0.21999999999999997" y2="0.2" /><line x1="0.25" y1="0.245" x2="0.25" y2="0.2" /><line x1="-0.25" y1="0.245" x2="-0.21999999999999997" y2="0.245" /><line x1="-0.25" y1="0.2" x2="-0.21999999999999997" y2="0.2" /><line x1="-0.25" y1="0.245" x2="-0.25" y2="0.2" /><line x1="-0.21999999999999997" y1="0.245" x2="-0.21999999999999997" y2="0.2" /><line x1="-0.22" y1="-0.218" x2="0.22" y2="-0.218" /><line x1="-0.22" y1="-0.24500000000000002" x2="0.22" y2="-0.24500000000000002" /><line x1="-0.22" y1="-0.218" x2="-0.22" y2="-0.24500000000000002" /><line x1="0.22" y1="-0.218" x2="0.22" y2="-0.24500000000000002" /><line x1="-0.22" y1="0.24500000000000002" x2="0.22" y2="0.24500000000000002" /><line x1="-0.22" y1="0.218" x2="0.22" y2="0.218" /><line x1="-0.22" y1="0.24500000000000002" x2="-0.22" y2="0.218" /><line x1="0.22" y1="0.24500000000000002" x2="0.22" y2="0.218" /><line x1="0.19299999999999998" y1="0.218" x2="0.22" y2="0.218" /><line x1="0.19299999999999998" y1="-0.218" x2="0.22" y2="-0.218" /><line x1="0.19299999999999998" y1="0.218" x2="0.19299999999999998" y2="-0.218" /><line x1="0.22" y1="0.218" x2="0.22" y2="-0.218" /><line x1="-0.22" y1="0.218" x2="-0.19299999999999998" y2="0.218" /><line x1="-0.22" y1="-0.218" x2="-0.19299999999999998" y2="-0.218" /><line x1="-0.22" y1="0.218" x2="-0.22" y2="-0.218" /><line x1="-0.19299999999999998" y1="0.218" x2="-0.19299999999999998" y2="-0.218" /><line x1="-0.22" y1="0.245" x2="0.22" y2="0.245" /><line x1="-0.22" y1="-0.245" x2="0.22" y2="-0.245" /><line x1="-0.22" y1="0.245" x2="-0.22" y2="-0.245" /><line x1="0.22" y1="0.245" x2="0.22" y2="-0.245" /><line x1="-0.22" y1="0.25" x2="0.22" y2="0.25" /><line x1="-0.22" y1="0.2" x2="0.22" y2="0.2" /><line x1="-0.22" y1="0.25" x2="-0.22" y2="0.2" /><line x1="0.22" y1="0.25" x2="0.22" y2="0.2" /><line x1="0.22249999999999998" y1="-0.2025" x2="0.2475" y2="-0.2025" /><line x1="0.22249999999999998" y1="-0.2425" x2="0.2475" y2="-0.2425" /><line x1="0.22249999999999998" y1="-0.2025" x2="0.22249999999999998" y2="-0.2425" /><line x1="0.2475" y1="-0.2025" x2="0.2475" y2="-0.2425" /><line x1="-0.2475" y1="-0.2025" x2="-0.22249999999999998" y2="-0.2025" /><line x1="-0.2475" y1="-0.2425" x2="-0.22249999999999998" y2="-0.2425" /><line x1="-0.2475" y1="-0.2025" x2="-0.2475" y2="-0.2425" /><line x1="-0.22249999999999998" y1="-0.2025" x2="-0.22249999999999998" y2="-0.2425" /><line x1="0.22249999999999998" y1="0.2425" x2="0.2475" y2="0.2425" /><line x1="0.22249999999999998" y1="0.2025" x2="0.2475" y2="0.2025" /><line x1="0.22249999999999998" y1="0.2425" x2="0.22249999999999998" y2="0.2025" /><line x1="0.2475" y1="0.2425" x2="0.2475" y2="0.2025" /><line x1="-0.2475" y1="0.2425" x2="-0.22249999999999998" y2="0.2425" /><line x1="-0.2475" y1="0.2025" x2="-0.22249999999999998" y2="0.2025" /><line x1="-0.2475" y1="0.2425" x2="-0.2475" y2="0.2025" /><line x1="-0.22249999999999998" y1="0.2425" x2="-0.22249999999999998" y2="0.2025" /></g><line x1="0.35" y1="0.15" x2="0.425" y2="0.15" stroke="black" stroke-width="0.0025" /><line x1="0.35" y1="0.04999999999999999" x2="0.425" y2="0.04999999999999999" stroke="black" stroke-width="0.0025" /><line x1="0.35" y1="-0.050000000000000044" x2="0.425" y2="-0.050000000000000044" stroke="black" stroke-width="0.0025" /><line x1="0.35" y1="-0.15000000000000002" x2="0.425" y2="-0.15000000000000002" stroke="black" stroke-width="0.0025" /></g></g></svg>